<svg width="128" height="112" viewBox="0 0 128 112" fill="none" xmlns="http://www.w3.org/2000/svg">
<path d="M7.14382 60.0109C6.5838 52.2119 7.6632 44.382 10.3125 37.0255C12.9619 29.6689 17.1224 22.9487 22.5263 17.2975C27.9302 11.6464 34.4576 7.18944 41.6883 4.21378C48.9191 1.23811 56.6928 -0.190362 64.509 0.020335C72.3252 0.231032 80.0107 2.07623 87.0706 5.43712C94.1305 8.79801 100.408 13.6001 105.5 19.5342C110.592 25.4683 114.384 32.4029 116.633 39.8915C118.882 47.3801 119.538 55.2567 118.559 63.0142L115.614 62.6424C116.541 55.2961 115.92 47.837 113.79 40.7454C111.66 33.6538 108.069 27.0868 103.247 21.4672C98.4254 15.8477 92.4803 11.3002 85.7947 8.11744C79.109 4.93471 71.8309 3.18733 64.429 2.9878C57.0271 2.78827 49.6655 4.14102 42.8181 6.95895C35.9706 9.77687 29.7892 13.9975 24.6718 19.3491C19.5544 24.7008 15.6144 31.0647 13.1055 38.0313C10.5966 44.9979 9.5744 52.4127 10.1047 59.7983L7.14382 60.0109Z" fill="url(#paint0_linear_23_23)"/>
<circle cx="20" cy="58" r="20" transform="rotate(180 20 58)" fill="url(#paint1_linear_23_23)"/>
<circle cx="107.46" cy="58.4599" r="20" transform="rotate(1.33325 107.46 58.4599)" fill="url(#paint2_linear_23_23)"/>
<circle cx="63" cy="62" r="50" fill="url(#paint3_linear_23_23)"/>
<path d="M52.8863 51.3535C53.145 51.4754 53.257 51.7848 53.1218 52.0369C52.3131 53.5445 51.1295 54.8222 49.6816 55.7443C48.0879 56.7593 46.2391 57.3021 44.3496 57.3096C42.4601 57.3171 40.6071 56.7892 39.0053 55.7869C37.5501 54.8763 36.3563 53.6082 35.5356 52.1071C35.3984 51.8561 35.5079 51.5458 35.7657 51.4218V51.4218C36.0234 51.2977 36.3316 51.407 36.4703 51.6571C37.2051 52.9822 38.2655 54.1021 39.5547 54.9088C40.9906 55.8073 42.6517 56.2805 44.3455 56.2738C46.0393 56.267 47.6965 55.7805 49.1252 54.8706C50.4079 54.0536 51.4593 52.9253 52.1835 51.5944C52.3203 51.3432 52.6276 51.2315 52.8863 51.3535V51.3535Z" fill="black"/>
<path d="M88.4046 83.412C88.7689 83.5838 88.9257 84.0188 88.7452 84.3787C86.317 89.2202 82.6208 93.3184 78.0448 96.2329C73.2635 99.278 67.7173 100.906 62.0488 100.929C56.3802 100.951 50.8212 99.3676 46.0158 96.3607C41.4166 93.4829 37.6879 89.4143 35.2211 84.5923C35.0377 84.2338 35.191 83.7976 35.5539 83.6229V83.6229C35.9168 83.4483 36.3517 83.6014 36.5355 83.9597C38.8825 88.5334 42.4238 92.3928 46.7893 95.1244C51.3611 97.9851 56.6499 99.492 62.0429 99.4705C67.436 99.449 72.7125 97.8999 77.2614 95.0028C81.605 92.2364 85.1153 88.3489 87.4257 83.7566C87.6067 83.3969 88.0404 83.2403 88.4046 83.412V83.412Z" fill="black"/>
<path d="M89.8863 51.3535C90.145 51.4754 90.257 51.7848 90.1218 52.0369C89.3131 53.5445 88.1295 54.8222 86.6816 55.7443C85.0879 56.7593 83.2391 57.3021 81.3496 57.3096C79.4601 57.3171 77.6071 56.7892 76.0053 55.7869C74.5501 54.8763 73.3563 53.6082 72.5356 52.1071C72.3984 51.8561 72.5079 51.5458 72.7657 51.4218V51.4218C73.0234 51.2977 73.3316 51.407 73.4703 51.6571C74.2051 52.9822 75.2655 54.1021 76.5547 54.9088C77.9906 55.8073 79.6517 56.2805 81.3455 56.2738C83.0393 56.267 84.6965 55.7805 86.1252 54.8706C87.4079 54.0536 88.4593 52.9253 89.1835 51.5944C89.3203 51.3432 89.6276 51.2315 89.8863 51.3535V51.3535Z" fill="black"/>
<defs>
<linearGradient id="paint0_linear_23_23" x1="63" y1="59.5" x2="63.6872" y2="-7.06359e-06" gradientUnits="userSpaceOnUse">
<stop stop-color="#898A8F"/>
<stop offset="1" stop-color="#49FDA3"/>
</linearGradient>
<linearGradient id="paint1_linear_23_23" x1="13.5" y1="58" x2="40" y2="58" gradientUnits="userSpaceOnUse">
<stop stop-color="#5C5E5D"/>
<stop offset="1" stop-color="#49FDA3"/>
</linearGradient>
<linearGradient id="paint2_linear_23_23" x1="100.96" y1="58.4599" x2="127.46" y2="58.4599" gradientUnits="userSpaceOnUse">
<stop stop-color="#5C5E5D"/>
<stop offset="1" stop-color="#49FDA3"/>
</linearGradient>
<linearGradient id="paint3_linear_23_23" x1="13" y1="59" x2="113" y2="55.5" gradientUnits="userSpaceOnUse">
<stop stop-color="#1EEB84"/>
<stop offset="1" stop-color="#4ADD93"/>
</linearGradient>
</defs>
</svg>
